<?xml version="1.0" encoding="UTF-8"?>
<svg width="48" height="48" viewBox="0 0 64 64" fill="none" xmlns="http://www.w3.org/2000/svg" role="img" aria-label="Logo Clínica">
  <defs>
    <linearGradient id="g1" x1="10" y1="10" x2="32" y2="32" gradientUnits="userSpaceOnUse">
      <stop offset="0" stop-color="#36C59A"/>
      <stop offset="1" stop-color="#4F8DF7"/>
    </linearGradient>
    <linearGradient id="g2" x1="32" y1="10" x2="54" y2="32" gradientUnits="userSpaceOnUse">
      <stop offset="0" stop-color="#4F8DF7"/>
      <stop offset="1" stop-color="#5ED3F3"/>
    </linearGradient>
    <linearGradient id="g3" x1="10" y1="32" x2="32" y2="54" gradientUnits="userSpaceOnUse">
      <stop offset="0" stop-color="#2E7D32"/>
      <stop offset="1" stop-color="#1B5E20"/>
    </linearGradient>
    <linearGradient id="g4" x1="32" y1="32" x2="54" y2="54" gradientUnits="userSpaceOnUse">
      <stop offset="0" stop-color="#2F7DE0"/>
      <stop offset="1" stop-color="#0E6FD0"/>
    </linearGradient>
    <filter id="s" x="-20%" y="-20%" width="140%" height="140%" color-interpolation-filters="sRGB">
      <feDropShadow dx="0" dy="2" stdDeviation="3" flood-opacity=".2"/>
    </filter>
  </defs>
  <!-- Curved cross made of 4 ribbon segments -->
  <g filter="url(#s)">
    <path d="M30 8c-6 0-10 4-10 10 0 3 1 6 3 8l7 7c2-2 3-5 3-8V10c0-1-1-2-3-2z" fill="url(#g1)"/>
    <path d="M34 8c6 0 10 4 10 10 0 3-1 6-3 8l-7 7c-2-2-3-5-3-8V10c0-1 1-2 3-2z" fill="url(#g2)"/>
    <path d="M30 56c-6 0-10-4-10-10 0-3 1-6 3-8l7-7c2 2 3 5 3 8v15c0 1-1 2-3 2z" fill="url(#g3)"/>
    <path d="M34 56c6 0 10-4 10-10 0-3-1-6-3-8l-7-7c-2 2-3 5-3 8v15c0 1 1 2 3 2z" fill="url(#g4)"/>
  </g>
</svg>
